<svg width="37" height="37" viewBox="0 0 37 37" fill="none" xmlns="http://www.w3.org/2000/svg">
<ellipse cx="16.4749" cy="7.79705" rx="16.4749" ry="7.79705" transform="matrix(-0.499562 0.866278 0.866278 0.499562 16.4604 0)" fill="url(#paint0_linear_34_10395)"/>
<ellipse cx="12.1613" cy="5.75557" rx="12.1613" ry="5.75557" transform="matrix(-0.499562 0.866278 0.866278 0.499562 24.1506 9)" fill="#AB68FF"/>
<ellipse cx="7.97061" cy="3.77224" rx="7.97061" ry="3.77224" transform="matrix(-0.499562 0.866278 0.866278 0.499562 29.9636 17)" fill="#9643FF"/>
<path fill-rule="evenodd" clip-rule="evenodd" d="M30.5499 19.0953C29.0098 19.88 27.306 21.6085 25.9818 23.9048C24.626 26.2558 23.9846 28.6531 24.1149 30.3899C25.5126 29.0534 26.877 27.3148 28.0472 25.2856C29.2653 23.1732 30.1055 21.0364 30.5499 19.0953Z" fill="#7B13FF"/>
<path fill-rule="evenodd" clip-rule="evenodd" d="M25.4451 12.006C22.9941 13.0957 20.2111 15.8314 18.0753 19.5351C15.8584 23.3793 14.8933 27.3046 15.2879 29.9837C17.5659 28.0803 19.8411 25.3533 21.739 22.062C23.7471 18.5799 24.997 15.0488 25.4451 12.006Z" fill="#D2AFFF"/>
<defs>
<linearGradient id="paint0_linear_34_10395" x1="2.03178" y1="14.4925" x2="-21.7936" y2="-14.2538" gradientUnits="userSpaceOnUse">
<stop stop-color="#F5EEFF"/>
<stop offset="1" stop-color="#F5EEFF" stop-opacity="0"/>
</linearGradient>
</defs>
</svg>
